<svg xmlns="http://www.w3.org/2000/svg" viewBox="0 0 814 1000" fill="white">
  <path d="M788.1 340.9c-5.8 4.5-108.2 62.2-108.2 190.5 0 148.4 130.3 200.9 134.2 202.2-.6 3.2-20.7 71.9-68.7 141.9-42.8 61.6-87.5 123.1-155.5 123.1s-85.5-39.5-164-39.5c-76.5 0-103.7 40.8-165.9 40.8S72 858.2 28.7 791.6C-82.3 628.6-18.1 465.1 36.9 408.7c36.9-36.6 84.7-56.3 135.2-56.3 61.2 0 96.4 40.8 163.8 40.8 65.6 0 84.3-40.8 164-40.8 54.8 0 114.2 21.4 155.4 58.3 1.8-1.1 3.8-2.2 5.8-3.3-49.7-29.8-81.7-83.2-81.7-141.8 0-77.5 60.3-141 134.4-150.4 14.4-12.8 60.3-53.3 60.3-130.6 0-70.2-42.1-128.9-96.9-155.5 4.5-2.6 9.1-5.1 13.7-7.6 66.1-34.6 141.6-34.8 175.8-34.8 1.3 0 2.6 0 3.9.1-11.7 49.8-46.1 92.4-95.7 113.2zm-222.4-88.3c-35.2-16.3-76.5-28.5-123.1-28.5-6.3 0-12.6.2-18.9.7 1.2-49.4 20.4-94.8 52.2-127.7 31.3-32.4 75.2-52.3 123.9-53.8 2.3 48.4-14.9 95.7-44.1 129.3z"/>
</svg>
